<svg width="39" height="40" viewBox="0 0 39 40" fill="none" xmlns="http://www.w3.org/2000/svg">
<path d="M33.83 19.7701C35.16 19.4201 36.53 18.9701 37.49 17.9901C38.45 17.0101 38.86 15.36 38.07 14.23C37.02 12.73 34.51 12.84 33.52 11.29C32.51 9.70004 33.8 7.56004 33.24 5.76004C32.87 4.56004 31.68 3.73004 30.44 3.51004C29.2 3.29004 27.92 3.62005 26.78 4.13005C23.66 5.53005 21.24 8.41005 20.42 11.7401C19.85 14.0301 19.75 19.75 22.54 20.81C23.95 21.34 26.27 20.91 27.73 20.79C29.79 20.62 31.83 20.28 33.83 19.76V19.7701Z" fill="#DF5848"/>
<path d="M30.69 16.05C28.81 17.53 25.73 19.26 23.5 17.56C25.88 18.88 28.58 17.21 30.69 16.05Z" fill="white"/>
<path d="M22.1899 15.4001C22.7799 13.0801 24.16 9.83008 26.96 9.83008C24.27 10.2301 23.1499 13.2001 22.1899 15.4001Z" fill="white"/>
<path d="M5.5899 19.4C4.2599 19.75 2.8899 20.2 1.9299 21.18C0.9699 22.16 0.559913 23.81 1.34991 24.94C2.39991 26.44 4.9099 26.33 5.8999 27.88C6.9099 29.47 5.6199 31.61 6.1799 33.41C6.5499 34.61 7.73992 35.44 8.97992 35.66C10.2199 35.87 11.4999 35.55 12.6399 35.04C15.7599 33.64 18.1799 30.76 18.9999 27.43C19.5699 25.14 19.6699 19.42 16.8799 18.36C15.4699 17.83 13.1499 18.26 11.6899 18.38C9.62991 18.55 7.5899 18.89 5.5899 19.41V19.4Z" fill="#DF5848"/>
<path d="M8.71997 23.12C10.6 21.64 13.68 19.91 15.91 21.61C13.53 20.29 10.83 21.96 8.71997 23.12Z" fill="white"/>
<path d="M17.23 23.77C16.64 26.09 15.26 29.34 12.46 29.34C15.15 28.94 16.27 25.97 17.23 23.77Z" fill="white"/>
<path d="M19.2899 33.8401C19.4099 35.2101 19.6398 36.6401 20.4398 37.7501C21.2498 38.8701 22.7998 39.5601 24.0498 38.9701C25.7098 38.1901 26.0099 35.7001 27.6999 35.0001C29.4299 34.2801 31.3298 35.9201 33.1898 35.6801C34.4398 35.5201 35.4498 34.4901 35.8598 33.3101C36.2698 32.1201 36.1598 30.8101 35.8498 29.5901C34.9898 26.2701 32.5399 23.3901 29.3999 22.0101C27.2299 21.0501 21.6098 19.9701 20.1098 22.5401C19.3498 23.8401 19.3998 26.2001 19.2798 27.6601C19.1098 29.7201 19.1098 31.7901 19.2798 33.8501L19.2899 33.8401Z" fill="#E57363"/>
<path d="M23.4697 31.39C22.3197 29.28 21.1197 25.96 23.1697 24.04C21.4697 26.17 22.6797 29.11 23.4697 31.39Z" fill="white"/>
<path d="M25.5198 23.1201C27.7098 24.1001 30.6797 26.0101 30.2297 28.7901C30.2797 26.0601 27.5298 24.4601 25.5198 23.1201Z" fill="white"/>
<path d="M6.08001 13.63C5.00001 12.88 3.94002 12.02 3.44002 10.83C2.94002 9.64003 3.20002 8.04002 4.35002 7.29002C5.89002 6.30002 8.13001 7.23002 9.62001 6.18002C11.15 5.10002 10.8 2.77003 12 1.35003C12.8 0.40003 14.2 0.0600228 15.41 0.280023C16.62 0.500023 17.66 1.22003 18.5 2.05003C20.8 4.33003 21.89 7.70003 21.36 10.94C20.99 13.17 18.88 18.29 15.94 18.31C14.45 18.31 12.51 17.16 11.23 16.57C9.42003 15.74 7.70001 14.75 6.08001 13.63Z" fill="#E57363"/>
<path d="M10.3601 11.36C11.8401 13.15 13.7201 15.48 16.3201 15.09C13.7401 15.88 11.5301 13.36 10.3601 11.36Z" fill="white"/>
<path d="M18.3399 13.6101C18.3199 11.3401 18.4399 8.30006 16.1499 7.06006C18.6799 7.97006 18.7099 11.3801 18.3399 13.6101Z" fill="white"/>
<path d="M17.01 16.1501C15.16 17.3601 14.65 19.8501 15.87 21.7001C17.09 23.5501 19.58 24.0801 21.43 22.8601C23.28 21.6501 23.79 19.1601 22.57 17.3101C21.35 15.4601 18.86 14.9301 17.01 16.1501Z" fill="#EBAA04"/>
<path d="M13.2798 15.79C11.4498 19.17 12.7099 23.41 16.0999 25.26C19.4899 27.11 23.7198 25.86 25.5498 22.48C27.3798 19.1 26.1198 14.86 22.7298 13.02C19.3398 11.17 15.1098 12.42 13.2798 15.8V15.79Z" fill="#EBAA04"/>
<path opacity="0.41" d="M15.9099 13.09C15.6599 13.42 15.4299 13.78 15.2299 14.15C13.0199 18.23 14.5399 23.35 18.6299 25.57C19.0099 25.78 19.3999 25.95 19.7899 26.09C18.5499 26.15 17.2799 25.88 16.0999 25.25C12.7099 23.4 11.4498 19.17 13.2798 15.78C13.9098 14.61 14.8399 13.7 15.9099 13.08V13.09Z" fill="#D9750F"/>
</svg>
