<svg width="323" height="114" viewBox="0 0 323 114" fill="none" xmlns="http://www.w3.org/2000/svg">
<path d="M121.12 103.49C120.66 103.5 120.2 103.49 119.74 103.53C113.57 104.08 111.7 101.36 110.21 96.05C109.61 93.93 109.05 91.78 108.2 89.77C105.99 84.55 101.48 82.61 96.2901 82.53C84.1301 82.34 71.9501 82.2 59.7901 82.57C53.1401 82.77 48.9201 85 46.6301 93.19C45.9901 95.49 45.5501 97.92 44.1601 99.99C42.3101 102.74 38.7601 104.15 35.6301 103.39C34.7201 103.17 34.5901 102.57 34.6001 101.87C34.7301 93.07 34.2701 84.27 34.8801 75.48C35.0401 73.12 36.7401 71.69 39.7501 71.73C42.0101 71.76 43.1901 70.97 44.3801 69.02C48.9401 61.54 51.8901 53.52 53.3901 44.93C53.6101 43.66 54.2901 42.48 54.1601 41.13C56.6801 41.11 59.2001 41.08 61.7201 41.06C62.2501 41.06 62.8001 41.11 62.9801 40.39C63.1501 39.69 62.9201 39.15 62.3301 38.84C61.8701 38.6 61.3301 38.39 60.8201 38.39C59.5201 38.38 59.0801 37.68 59.0301 36.52C58.9801 35.38 58.9001 34.23 58.8501 33.09C58.6001 26.65 59.8301 20.3 59.9701 13.89C60.0001 12.36 60.2101 11.19 62.0301 10.97C62.7601 10.88 63.3601 10.42 63.2101 9.56999C63.0301 8.53999 62.1301 8.93999 61.5501 8.93999C57.9601 8.88999 54.3701 8.88999 50.7801 8.86999C49.0701 7.25999 47.4401 5.69999 47.7701 2.93999C48.0001 0.889987 48.6501 -0.0100125 50.8701 -1.25219e-05C64.0201 0.0799875 77.1701 0.0399875 90.3201 0.0399875C98.6501 0.0399875 106.99 0.0899875 115.32 -1.25219e-05C116.92 -0.0200125 117.65 0.409987 117.93 2.01999C118.39 4.66999 117.62 6.74999 115.56 8.40999C114.84 8.63999 113.95 8.20999 113.35 8.94999C110.47 9.76999 108.25 11.15 108.35 14.61C108.38 15.44 108.35 16.27 108.34 17.1C107.36 17 106.38 16.89 105.39 16.79C104.78 16.73 104.1 16.59 103.88 17.4C103.69 18.07 104.01 18.58 104.6 18.92C105.06 19.19 105.51 19.47 105.95 19.77C106.68 20.27 106.76 20.95 106.1 21.48C102.86 24.09 99.5801 26.64 95.9601 29.49C96.4901 24.91 96.97 20.84 97.43 16.76C97.62 15.02 98.0601 13.65 100.28 13.81C101 13.86 101.52 13.3 101.47 12.43C101.42 11.68 100.88 11.66 100.34 11.6C97.92 11.3 95.5001 10.98 93.0801 10.69C92.5201 10.62 91.8001 10.32 91.6301 11.26C91.5101 11.95 91.7601 12.45 92.4201 12.73C94.3101 13.52 94.2901 15.05 94.0501 16.75C93.5601 20.22 93.21 23.72 92.68 27.18C92.22 30.16 92.4901 33.61 88.5101 34.66C87.9201 31.03 88.2301 27.39 88.4201 23.76C88.5401 21.49 88.8001 19.19 87.5801 17.1C83.8001 10.67 74.4701 11.11 70.2901 17.9C68.3801 17.84 66.4801 17.9 64.7801 18.95C64.0901 19.38 63.6401 20.02 63.8301 20.86C64.0001 21.63 64.7401 21.43 65.1601 21.27C67.7701 20.31 68.1601 21.73 68.0001 23.81C67.5301 30.83 66.5801 37.77 65.3301 44.7C64.3801 49.96 63.2301 55.12 61.6501 60.22C60.4401 64.14 58.5901 67.79 57.1901 71.62C57.4601 71.72 57.6001 71.81 57.7401 71.81C67.3901 71.83 77.0301 71.81 86.68 71.87C88.2 71.87 88.16 71.01 88.18 69.94C88.26 64.28 88.4301 58.61 88.4701 52.95C88.5101 47.07 88.4401 41.19 88.4101 35.31C88.5501 36.18 89.1701 36.3 89.9101 36.38C92.0401 36.62 94.1501 36.97 96.2801 37.17C97.0901 37.24 98.2601 37.92 98.6301 36.59C99.0001 35.26 97.8601 34.97 96.9101 34.64C95.1001 34.01 94.8901 33.02 96.3901 31.8C98.3401 30.21 100.32 28.65 102.32 27.13C103.47 26.26 104.39 25.04 106.02 24.52C105.5 28.67 105.01 32.61 104.52 36.54C104.28 38.5 103.73 40.14 101.29 40.22C100.65 40.24 100.19 40.79 100.17 41.48C100.14 42.37 100.87 42.32 101.45 42.42C102.2 42.56 102.95 42.71 103.7 42.85C103.41 43.45 103.12 44.06 102.83 44.66C99.5501 51.34 99.2901 58.32 101.13 65.36C102.67 71.25 105.85 76.09 111.35 79.17C114.04 80.68 117.01 81.35 119.94 82.13C120.73 82.34 121.34 82.46 121.32 83.53C121.17 90.17 121.55 96.82 121.11 103.46L121.12 103.49Z" fill="#F5A91D"/>
<path d="M226.05 41.78C233.22 41.44 239.3 43.62 243.9 49.37C246.54 52.67 248.05 56.54 248.57 60.57C249.75 69.76 248.64 78.51 241.66 85.52C237.71 89.48 232.67 91.06 227.3 91.54C224.03 91.83 220.72 91.73 217.44 91.55C215.56 91.45 214.99 92.14 215.07 93.85C215.12 94.92 215.04 95.99 215.02 97.06C214.95 101.34 216.07 102.69 220.31 103.59C221.42 103.83 222.48 104.24 223.59 104.51C224.24 104.67 224.53 105.13 224.48 105.67C224.34 107.03 224.18 108.41 223.84 109.73C223.57 110.78 222.66 110.91 221.64 110.85C212.02 110.25 202.4 109.67 192.78 109.11C192.02 109.07 191.54 108.88 191.3 108.03C190.37 104.74 191.12 103.38 194.42 102.59C196.84 102.02 198.4 100.32 198.68 97.85C198.99 95.19 199.52 92.54 199.33 89.85C199.24 88.55 199.95 87.66 200.48 86.71C204.86 78.94 204.93 70.94 201.83 62.78C200.54 59.39 201.44 55.97 201.58 52.58C201.74 48.6 201.94 48.6 198.07 48.45C194.56 48.31 194.66 48.31 194.66 44.73C194.66 42.84 194.85 41.45 197.16 41.33C203.26 41.02 209.35 39.93 215.45 41.22C215.63 42.07 216.17 42.73 216.66 43.41C216.78 44.14 216.51 44.93 217.04 45.74C218.24 44.96 219.41 44.2 220.59 43.44C222.41 42.89 224.23 42.34 226.05 41.79V41.78ZM215.49 72.61C215.49 75.75 215.57 78.88 215.45 82.01C215.4 83.29 215.92 83.82 217 84.13C223.07 85.83 228.07 83.58 230.69 77.87C233.52 71.7 233.44 65.19 232.21 58.77C231.18 53.44 228.38 51.12 223.91 50.91C222.01 50.82 220.09 51.1 218.19 51.22C217.14 51.29 216.79 51.89 216.77 52.9C216.6 59.48 215.56 66.01 215.5 72.61H215.49Z" fill="#F5A81C"/>
<path d="M188.4 29.65C188.37 33.13 186.99 36.33 186.27 39.66C185.82 41.71 183.46 41.3 182 41.7C176.74 43.17 171.51 44.7 166.39 46.6C163.85 47.55 162.66 49.21 162.61 51.96C162.58 53.64 162.6 55.33 162.65 57.01C162.67 57.5 162.36 58.17 163.01 58.44C163.57 58.68 163.96 58.22 164.4 57.9C167.64 55.52 171.12 53.61 175.09 52.7C185.05 50.4 194.84 54.41 198.52 65.04C202.04 75.22 199.93 84.08 192.77 91.76C184.22 100.92 168.52 102.95 159.46 95.26C154.76 91.27 152.38 85.93 150.73 80.21C148.63 72.92 148.53 65.43 148.84 57.93C149.01 53.86 149.99 49.96 151.5 46.19C151.89 45.45 152.56 44.82 152.47 43.87C156.12 39.25 161.51 37.28 166.49 34.69C167.31 34.27 168.09 33.83 168.8 33.26C169.73 33.11 170.5 32.66 171.19 32.03C173.54 31.92 175.39 30.56 177.36 29.5C178.73 29.47 180.1 29.49 181.47 29.4C182.3 29.35 183.48 29.84 183.69 28.46C183.89 27.13 182.61 27.22 181.89 26.79C182.57 26.1 183.23 25.39 183.93 24.73C185.71 23.05 188.73 24.19 189.35 26.77C186.94 27.93 186.82 28.31 188.42 29.65H188.4ZM184.64 79.27C184.76 75.12 184.13 71.25 182.71 67.62C180.91 63.02 177.78 60.62 173.41 61.39C171.18 61.78 169.01 62.48 167.01 63.64C163.08 65.92 163.1 65.91 164.01 70.22C164.51 72.6 164.66 75.04 165.32 77.41C166.52 81.73 167.72 86.02 171.41 89.04C175.09 92.04 180.63 91.08 182.96 86.99C184.35 84.54 184.83 81.86 184.65 79.27H184.64Z" fill="#F5A81C"/>
<path d="M247.02 25.59C248.95 24.79 251.01 24.45 253.03 23.98C253.45 25.86 254.9 27.73 253.02 29.63C252.4 30.25 251.57 30.99 252.22 31.96C252.86 32.92 253.71 31.83 254.48 31.94C254.46 32.43 254.75 32.78 254.99 33.17C258.13 38.29 261.25 43.43 264.36 48.57C265.84 51.02 267.29 53.5 269.08 56.52C269.78 47.89 270.85 40.04 271.13 32.11C271.26 28.51 270.39 27.52 266.78 27.21C268.41 24.93 268.6 22.53 267.37 20.01C271.46 18.9 275.58 17.87 279.63 16.64C281.24 16.15 281.45 16.68 282.14 18.06C284.13 22 280.85 24.99 280.72 28.52C280.61 31.31 279.72 34.06 279.35 36.85C278 46.9 276.35 56.91 274.89 66.95C274.21 71.63 273.52 76.31 272.82 80.99C272.21 85.07 269.83 88.13 266.85 90.81C263.73 93.61 263.76 93.61 260.59 90.84C258.32 88.85 256.04 86.87 253.68 84.98C252.37 83.93 252.69 83.25 253.89 82.5C256.9 80.63 259.77 78.6 262.18 75.95C263.61 74.38 263.8 73.23 262.48 71.3C255.43 60.99 248.54 50.57 241.68 40.13C240.41 38.2 238.95 36.76 236.6 36.4C233.43 35.91 231.68 32.32 233.05 29.1C236.86 32.12 240.85 30.78 244.82 29.57C246.79 28.97 247.76 27.72 247.03 25.57L247.02 25.59Z" fill="#F5A91D"/>
<path d="M290.36 75.64C291.17 69.81 291.96 64.22 292.7 58.63C293.47 52.8 294.18 46.96 294.94 41.13C295.78 34.7 296.64 28.27 297.51 21.85C297.82 19.58 297.69 17.27 298.32 15.02C298.59 14.08 298.78 13.45 299.94 13.22C303.67 12.49 307.37 11.59 311.08 10.78C311.97 10.58 312.65 10.88 313.34 11.52C316.12 14.08 318.93 16.6 321.8 19.04C322.81 19.9 322.57 20.77 322.2 21.71C315.6 38.44 308.99 55.17 302.4 71.9C301.63 73.87 300.95 75.87 300.26 77.87C299.73 79.4 298.77 80 297.16 79.51C295.2 78.91 293.25 78.28 291.26 77.82C289.56 77.42 290.84 76.14 290.36 75.63V75.64Z" fill="#F5A81C"/>
<path d="M147.13 45.15C143.82 53.05 143.8 61.35 144.25 69.69C144.36 71.74 144.84 73.77 145.08 75.82C145.3 77.66 144.69 78.9 142.82 79.79C138.23 81.98 133.48 82.97 128.42 82.59C126.97 82.48 125.52 82.44 124.07 82.36C123.29 81.84 122.38 81.74 121.5 81.49C117.29 80.28 113.59 78.27 110.8 74.74C107.88 71.03 106.66 66.75 105.98 62.19C104.96 55.38 106.85 49.28 110.25 43.5C110.81 43.07 111.18 42.52 111.35 41.84C111.76 41.76 111.92 41.41 112.15 41.11C114.96 37.64 118.49 35.16 122.54 33.28C125.23 32.03 128.12 32.05 130.88 31.34C135.5 36.88 140.44 42.05 147.13 45.15ZM140.96 57.77C140.7 53.41 140.69 49.29 138.75 45.47C137.12 42.28 133.69 39.99 130.3 40.31C126.69 40.65 124.15 42.44 122.89 46.06C122.35 47.61 122.1 49.16 121.89 50.73C121.07 56.93 121.15 63.06 124.04 68.82C125.69 72.11 129.28 73.93 132.91 73.51C136.47 73.1 138.5 71.03 139.76 67.25C140.83 64.04 140.52 60.75 140.97 57.77H140.96Z" fill="#F5A91D"/>
<path d="M39.59 36.61C36.85 40.04 33.22 42.5 30.03 45.46C26.45 48.78 26.51 47.92 29.78 51.27C33.9 55.5 37.63 60.13 42.28 63.83C42.51 64.01 42.95 64.27 42.92 64.4C42.47 66.35 41.09 67.81 40.13 69.5C39.62 70.4 38.77 69.91 37.91 69.78C30.75 68.67 26.19 63.96 22.06 58.59C20.81 56.97 19.49 55.4 17.85 53.39C17.85 56.41 17.79 58.75 17.88 61.08C17.92 62.15 18.39 63.19 19.3 63.82C20.72 64.81 20.49 66.12 20.29 67.51C20.16 68.43 19.81 68.83 18.84 68.82C13.25 68.79 7.67002 68.81 2.08002 68.81C1.46002 68.81 0.800016 68.84 0.780016 67.94C0.760016 66.85 0.130023 65.67 1.24002 64.76C1.47002 64.57 1.78001 64.46 2.06001 64.36C4.86001 63.3067 6.27335 61.2533 6.30002 58.2C6.33002 52.23 6.30002 46.26 6.38002 40.29C6.40002 38.55 5.79001 37.67 4.06001 37.25C1.70001 36.68 1.13002 35.39 1.74002 33.01C1.95002 32.19 2.44002 32.12 3.08002 32.12C8.44002 32.12 13.8 32.12 19.15 32.12C20.07 32.12 20.95 32.38 20.95 33.44C20.95 34.72 21.83 36.43 20.13 37.13C17.92 38.05 17.58 39.72 17.63 41.75C17.67 43.66 17.63 45.58 17.66 47.49C17.66 47.84 17.73 48.38 17.94 48.5C18.35 48.72 18.81 48.44 19.15 48.11C21.95 45.38 24.73 42.63 27.54 39.9C28.84 38.63 27.99 37.72 27.02 36.9C26.33 36.31 25.63 35.91 25.6 34.77C25.55 32.91 25.93 31.86 28.12 32.09C31.29 32.42 34.51 31.66 37.66 32.48C37.41 33.77 36.04 33.69 35.29 34.39C34.82 34.82 34.36 35.27 34.48 35.91C34.65 36.78 35.44 36.42 35.98 36.46C37.18 36.55 38.39 36.58 39.59 36.63V36.61Z" fill="#F5A91D"/>
<path d="M289.91 88.79C290.97 88.62 291.74 89.22 292.33 89.9C295.58 93.63 298.29 97.68 299.64 102.53C299.95 103.66 299.82 104.58 298.93 105.42C295.23 108.89 290.95 111.31 286.11 112.81C284.6 113.28 283.44 112.88 282.46 111.73C279.52 108.32 277.31 104.46 275.78 100.25C275.17 98.57 275.25 96.79 276.96 95.5C280.48 92.86 284.25 90.69 288.35 89.08C288.84 88.89 289.4 88.89 289.92 88.8L289.91 88.79Z" fill="#F5A81C"/>
<path d="M39.5901 36.61C38.3901 36.56 37.1801 36.53 35.9801 36.44C35.4401 36.4 34.6501 36.76 34.4801 35.89C34.3501 35.25 34.8201 34.8 35.2901 34.37C36.0401 33.68 37.4101 33.76 37.6601 32.46C38.5501 31.6 38.3001 30.46 38.3201 29.44C38.3901 24.47 38.3801 19.51 38.4201 14.54C38.4401 12.68 38.0701 11.22 35.8101 11.01C35.1001 10.94 34.2301 10.58 34.4401 9.52998C34.6401 8.49998 35.5301 8.91998 36.1201 8.91998C41.0101 8.86998 45.9001 8.85998 50.7901 8.84998C54.3801 8.86998 57.9701 8.85998 61.5601 8.91998C62.1501 8.91998 63.0501 8.52998 63.2201 9.54998C63.3701 10.4 62.7601 10.86 62.0401 10.95C60.2201 11.17 60.0201 12.34 59.9801 13.87C59.8401 20.28 58.6001 26.63 58.8601 33.07C58.9101 34.21 58.9901 35.36 59.0401 36.5C59.0901 37.66 59.5301 38.36 60.8301 38.37C61.3401 38.37 61.8801 38.58 62.3401 38.82C62.9301 39.13 63.1601 39.68 62.9901 40.37C62.8101 41.09 62.2601 41.03 61.7301 41.04C59.2101 41.06 56.6901 41.09 54.1701 41.11C53.7101 41.09 53.2601 41.05 52.8001 41.04C52.2501 41.04 51.7001 41.07 51.5401 40.36C51.3701 39.63 51.7001 39.08 52.3601 38.94C54.9201 38.39 55.0701 36.46 55.1801 34.38C55.5601 27.51 55.9901 20.63 56.4701 13.77C56.5801 12.19 56.3501 11.46 54.4601 11.56C50.8701 11.74 47.2701 11.66 43.6701 11.59C42.3801 11.56 41.7801 11.75 41.8201 13.28C41.9801 19.17 42.0301 25.06 42.0301 30.96C42.0301 32.69 42.4601 33.76 44.4001 33.78C44.9101 33.78 45.4501 34.01 45.9201 34.25C46.5101 34.56 46.7701 35.13 46.6201 35.8C46.4601 36.49 45.8901 36.45 45.3401 36.46C43.4301 36.5 41.5201 36.56 39.6101 36.61H39.5901Z" fill="#35312D"/>
<path d="M216.67 43.4C216.18 42.72 215.64 42.06 215.46 41.21C217.17 41.03 218.41 40.29 218.42 38.38C218.45 33.18 218.43 27.99 218.43 22.78C217.65 22.52 217.35 23.21 216.93 23.56C214.01 26.03 211.12 28.54 208.21 31.02C207.54 31.59 206.95 32.15 207.21 33.14C207.44 34.03 208.27 33.9 208.88 34.04C209.77 34.25 210.86 34.19 210.81 35.49C210.74 37.05 209.47 36.4 208.7 36.43C206.48 36.51 204.26 36.48 202.04 36.44C201.51 36.44 200.73 36.8 200.59 35.83C200.5 35.17 200.66 34.55 201.34 34.32C203.47 33.62 203.61 31.94 203.6 30.08C203.58 26.87 203.66 23.65 203.72 20.44C203.75 19.03 203.48 17.87 201.87 17.46C201.08 17.26 200.45 16.8 200.68 15.83C200.93 14.77 201.81 15.29 202.39 15.27C204.53 15.2 206.68 15.22 208.82 15.27C209.42 15.28 210.27 14.86 210.48 15.94C210.68 16.96 210.05 17.47 209.25 17.49C207.12 17.53 207.08 18.86 207.12 20.45C207.19 23.17 207.14 25.88 207.14 29.08C211 25.78 214.46 22.83 217.93 19.87C218.89 19.05 218.45 18.41 217.63 17.89C217.12 17.57 216.52 17.39 215.98 17.11C215.39 16.81 215.37 16.26 215.48 15.72C215.61 15.07 216.18 15.26 216.6 15.26C219.13 15.24 221.65 15.26 224.18 15.24C224.77 15.24 225.26 15.33 225.38 16C225.51 16.74 225.09 17.33 224.46 17.34C221.5 17.42 221.89 19.51 221.91 21.4C221.95 26.91 222.05 32.42 221.96 37.93C221.93 39.88 222.38 41.01 224.49 41C225.13 41 225.7 41.18 226.06 41.77C224.24 42.32 222.42 42.87 220.6 43.42C219.29 43.41 217.99 43.4 216.68 43.39L216.67 43.4Z" fill="#35312D"/>
<path d="M181.88 26.79C182.6 27.23 183.89 27.14 183.68 28.46C183.47 29.84 182.29 29.34 181.46 29.4C180.09 29.49 178.72 29.47 177.35 29.5C176.51 29.46 175.67 29.42 174.84 29.38C174.33 29.36 173.69 29.58 173.55 28.81C173.44 28.19 173.48 27.52 174.2 27.27C176.42 26.53 176.54 24.76 176.54 22.84C176.54 18.25 176.6 13.66 176.69 9.07C176.72 7.48 176.45 6.17 174.68 5.7C173.91 5.5 173.51 5.04 173.59 4.21C173.71 3.08 174.58 3.48 175.17 3.47C177.39 3.43 179.61 3.45 181.82 3.46C182.48 3.46 183.26 3.25 183.35 4.32C183.42 5.15 183.1 5.68 182.24 5.73C180.16 5.83 179.88 7.11 179.97 8.85C180.08 11.06 180.04 13.29 179.97 15.5C179.94 16.59 180.12 17.16 181.43 17.11C184.18 17.01 186.94 17.03 189.69 17.11C190.8 17.14 191.17 16.79 191.1 15.69C190.97 13.44 191.86 10.8 188.52 9.96C188.02 9.83 187.88 9.12 188.09 8.56C188.28 8.02 188.78 8.05 189.25 8.05C191.7 8.05 194.15 8.05 196.59 8.05C197.25 8.05 197.84 8.14 197.91 8.96C197.99 9.83 197.49 10.27 196.71 10.32C194.45 10.45 194.34 11.94 194.4 13.68C194.51 17.27 194.58 20.87 194.55 24.46C194.55 25.97 194.75 27.04 196.6 26.87C196.81 26.85 197.04 26.99 197.26 27.03C198.1 27.18 198.72 27.51 198.58 28.52C198.44 29.52 197.68 29.34 197.01 29.37C194.13 29.5 191.23 29.07 188.37 29.62C186.77 28.28 186.9 27.89 189.31 26.74C189.53 26.7 189.82 26.74 189.97 26.61C190.87 25.81 191.71 21.23 190.98 20.12C190.18 18.92 188.77 19.73 187.64 19.58C186.89 19.47 186.12 19.56 185.36 19.56C179.67 19.56 179.72 19.56 180.01 25.25C180.08 26.69 180.71 26.92 181.87 26.76L181.88 26.79Z" fill="#383534"/>
<path d="M130.88 31.34C128.03 27.48 125.13 23.67 121.78 20.21C121.36 19.77 120.48 19.52 120.94 18.6C123.17 16.76 125.42 14.94 127.64 13.09C128.92 12.02 129.32 11.01 127.32 10.29C126.78 10.1 126.3 9.83 126.38 9.18C126.49 8.27 127.26 8.51 127.82 8.5C129.5 8.47 131.18 8.55 132.86 8.47C134.6 8.39 134.43 9.18 133.73 10.22C132.08 12.68 129.65 14.31 127.32 16.03C124.62 18.04 124.7 17.94 126.91 20.37C130.34 24.15 133.63 28.06 136.98 31.92C140.39 36.08 144.05 39.97 148.99 42.37C150.04 43.13 151.21 43.59 152.46 43.86C152.55 44.81 151.88 45.43 151.49 46.18C150.03 45.84 148.57 45.49 147.11 45.15C140.42 42.04 135.48 36.88 130.86 31.34H130.88Z" fill="#373431"/>
<path d="M153.95 18.84C154.04 27.02 147.64 32.27 140.62 30.04C139.21 29.59 137.99 28.85 137.03 27.7C132.55 22.33 134.83 12.21 141.17 9.32C147.04 6.64 153.13 10.24 153.84 16.82C153.92 17.58 153.92 18.34 153.95 18.85V18.84ZM138.61 19.75C138.68 21 138.57 22.44 139.07 23.85C139.99 26.44 141.95 27.76 144.89 27.67C147.55 27.58 149.11 26.25 149.77 23.43C150.42 20.64 150.43 17.82 149.64 15.06C148.91 12.48 146.94 11.16 144.13 11.18C141.57 11.2 140 12.44 139.15 15.04C138.67 16.52 138.66 18.04 138.61 19.75Z" fill="#343130"/>
<path d="M254.48 31.95C253.72 31.84 252.86 32.92 252.22 31.97C251.57 31 252.4 30.27 253.02 29.64C254.9 27.74 253.45 25.87 253.03 23.99C252.63 20.98 251.64 18.12 250.84 15.22C250.54 14.14 249.66 13.97 248.69 13.88C247.89 13.81 247.13 13.45 247.08 12.53C247.03 11.48 248.01 11.73 248.59 11.56C250.64 10.97 252.7 10.39 254.77 9.86C255.45 9.69 256.28 9.23 256.68 10.33C257 11.21 256.39 11.58 255.79 11.95C255.11 12.37 253.93 12.45 254.09 13.52C254.31 15.01 254.73 16.49 255.26 17.91C255.47 18.47 256.24 18.09 256.73 17.96C258.06 17.62 259.36 17.22 260.75 17.12C263.48 16.93 265.68 17.86 267.36 20.02C268.59 22.54 268.4 24.94 266.77 27.22C265.28 28.38 263.7 29.41 261.87 29.94C259.41 30.65 256.94 31.28 254.47 31.95H254.48ZM264.6 23.95C264.62 21.35 263.05 19.43 260.64 19.7C259.07 19.88 256.4 19.18 256.17 21.42C255.83 24.79 257.97 28.18 259.59 28.12C262 28.04 264.58 25.88 264.6 23.94V23.95Z" fill="#373431"/>
<path d="M247.02 25.59C247.75 27.73 246.79 28.98 244.81 29.59C240.84 30.8 236.85 32.14 233.04 29.12C230.3 25.75 229.36 21.81 229.58 17.57C229.88 11.9 236.28 7.16 241.84 8.43C243.85 8.89 244.53 11.1 243.26 12.78C242.68 13.54 242.23 13.14 241.75 12.82C240.37 11.88 238.87 11.44 237.2 11.68C234.68 12.05 233.04 13.71 232.83 16.22C232.58 19.18 233.16 22 234.57 24.61C235.97 27.21 238.01 28.09 240.88 27.36C242.93 26.83 244.96 26.19 247 25.6L247.02 25.59Z" fill="#373431"/>
<path d="M171.19 32.03C170.5 32.66 169.73 33.11 168.8 33.26C166.82 33.26 164.83 33.4 162.86 33.24C158.98 32.93 156.49 30.7 155.82 26.89C155.37 24.33 155.35 21.72 156 19.16C157.54 13.03 163.8 9.72 169.77 11.85C171.49 12.46 172.34 13.57 171.6 15.35C171.09 16.58 170.45 17.75 168.93 16.02C167.27 14.13 165 13.68 162.64 14.48C160.43 15.23 159.65 17.15 159.33 19.29C159.25 19.82 159.15 20.34 159.09 20.88C158.29 28.36 161.93 31.73 169.3 30.18C171.2 29.78 171.71 30.24 171.19 32.03Z" fill="#343130"/>
<path d="M120 18.53C120.01 20.59 120 22.66 120.04 24.72C120.06 26.01 120.4 27.15 121.79 27.64C122.46 27.88 122.77 28.36 122.65 29.07C122.49 29.97 121.75 29.74 121.19 29.74C118.97 29.76 116.75 29.77 114.53 29.74C113.97 29.74 113.21 29.97 113.05 29.09C112.93 28.4 113.25 27.87 113.94 27.7C116.27 27.13 116.47 25.33 116.49 23.41C116.53 20.35 116.52 17.28 116.63 14.22C116.69 12.53 116.42 11.17 114.52 10.7C113.62 10.48 113.38 9.76999 113.38 8.93999C113.98 8.19999 114.86 8.63999 115.59 8.39999C117.62 8.42999 119.65 8.44999 121.68 8.47999C122.42 8.47999 123.3 8.30999 123.43 9.37999C123.54 10.34 122.88 10.62 122.06 10.81C121.45 10.95 120.67 10.83 120.34 11.61C120.26 11.76 120.19 11.91 120.11 12.06C119.8 14.21 119.94 16.36 120.03 18.52L120 18.53Z" fill="#343130"/>
<path d="M148.99 42.37C144.05 39.96 140.39 36.08 136.98 31.92C142.35 32.27 146.92 34.39 150.83 38.07C151.8 38.98 151.8 39.61 150.83 40.45C150.16 41.03 149.6 41.73 148.98 42.37H148.99Z" fill="#F5A91D"/>
<path d="M88.43 35.33C88.46 35.11 88.49 34.89 88.52 34.66C92.5 33.61 92.23 30.16 92.69 27.18C93.23 23.71 93.57 20.22 94.06 16.75C94.3 15.05 94.32 13.52 92.43 12.73C91.77 12.45 91.52 11.95 91.64 11.26C91.81 10.31 92.52 10.62 93.09 10.69C95.51 10.98 97.93 11.3 100.35 11.6C100.89 11.67 101.43 11.68 101.48 12.43C101.53 13.3 101.01 13.86 100.29 13.81C98.07 13.64 97.63 15.02 97.44 16.76C96.99 20.84 96.5 24.91 95.97 29.49C99.59 26.64 102.87 24.09 106.11 21.48C106.76 20.95 106.68 20.27 105.96 19.77C105.52 19.47 105.07 19.19 104.61 18.92C104.01 18.57 103.7 18.07 103.89 17.4C104.11 16.59 104.79 16.73 105.4 16.79C106.38 16.89 107.36 17 108.35 17.1C109.77 17.32 111.2 17.52 112.62 17.75C113.24 17.85 113.87 18 113.8 18.84C113.74 19.54 113.31 20.02 112.61 19.95C110.03 19.7 109.93 21.43 109.73 23.28C109.2 28.11 108.58 32.93 107.95 37.75C107.73 39.45 107.61 40.95 109.95 41.12C110.43 41.16 110.87 41.59 111.33 41.84C111.16 42.53 110.79 43.08 110.23 43.5C108.05 43.39 105.91 42.71 103.7 42.89C102.95 42.75 102.2 42.59 101.45 42.46C100.86 42.35 100.13 42.41 100.17 41.52C100.2 40.83 100.65 40.28 101.29 40.26C103.73 40.18 104.28 38.53 104.52 36.58C105.01 32.65 105.5 28.71 106.02 24.56C104.39 25.08 103.47 26.3 102.32 27.17C100.31 28.69 98.34 30.25 96.39 31.84C94.9 33.06 95.1 34.05 96.91 34.68C97.86 35.01 99.01 35.29 98.63 36.63C98.26 37.96 97.09 37.28 96.28 37.21C94.15 37.01 92.04 36.66 89.91 36.42C89.17 36.34 88.55 36.22 88.41 35.35L88.43 35.33Z" fill="#39322C"/>
<path d="M70.31 17.91C70.62 18.67 70.93 19.43 71.31 20.38C73.48 18.03 76.12 17.01 79.27 17.42C81.9 17.76 83.81 19.09 85.03 21.43C86.72 24.66 87.23 28.13 86.63 31.67C85.91 35.93 83.04 38.26 78.97 39.18C77.56 39.5 76.11 39.61 74.5 39.85C74.72 40.92 75.04 41.99 75.14 43.09C75.3 44.84 75.9 45.83 77.89 45.41C78.77 45.22 79.65 45.48 79.74 46.59C79.84 47.81 78.74 47.55 78.09 47.68C75.77 48.13 73.43 48.52 71.08 48.83C70.52 48.9 69.66 49.51 69.31 48.5C69.06 47.79 69.37 47.15 69.95 46.67C70.81 45.96 71.44 45.15 71.25 43.93C70.22 37.22 69.44 30.48 68.01 23.84C68.17 21.76 67.77 20.34 65.17 21.3C64.75 21.46 64.02 21.66 63.84 20.89C63.65 20.05 64.09 19.41 64.79 18.98C66.49 17.93 68.38 17.87 70.3 17.93L70.31 17.91ZM83.14 28.6C83.12 26.98 82.48 24.26 80.61 21.98C79.07 20.1 76.71 19.73 74.14 20.7C72.28 21.4 71.46 22.77 71.74 24.62C72.31 28.38 73.05 32.13 73.74 35.87C73.84 36.43 73.86 36.99 74.74 37.14C79.49 37.92 83.16 34.79 83.15 28.6H83.14Z" fill="#373431"/>
</svg>
